<svg xmlns="http://www.w3.org/2000/svg" width="260" height="84" viewBox="0 0 260 84">
<defs>
  <linearGradient id="bd" x1="0" y1="0" x2="1" y2="1"><stop offset="0" stop-color="#06b6d4"/><stop offset="1" stop-color="#8b5cf6"/></linearGradient>
  <linearGradient id="bg" x1="0" y1="0" x2="0" y2="1"><stop offset="0" stop-color="#111827"/><stop offset="1" stop-color="#0b1120"/></linearGradient>
  <linearGradient id="sh" x1="0" y1="0" x2="1" y2="0"><stop offset="0" stop-color="#fff" stop-opacity="0"/><stop offset=".5" stop-color="#fff" stop-opacity=".13"/><stop offset="1" stop-color="#fff" stop-opacity="0"/></linearGradient>
  <clipPath id="cl"><rect x="2" y="2" width="256" height="80" rx="18"/></clipPath>
</defs>
<style>
 .t{font:700 20px 'Segoe UI',Ubuntu,'Helvetica Neue',Arial,sans-serif;fill:#f8fafc}
 .s{font:500 13px 'Segoe UI',Ubuntu,'Helvetica Neue',Arial,sans-serif;fill:#94a3b8}
 .shine{animation:mv 3.5s ease-in-out infinite}
 @keyframes mv{0%{transform:translateX(-260px)}60%,100%{transform:translateX(260px)}}
 .pulse{animation:p 2.4s ease-in-out infinite;transform-origin:50px 42px}
 @keyframes p{0%,100%{opacity:.35}50%{opacity:.8}}
</style>
<rect x="1" y="1" width="258" height="82" rx="19" fill="url(#bd)"/>
<rect x="3" y="3" width="254" height="78" rx="17" fill="url(#bg)"/>
<circle class="pulse" cx="50" cy="42" r="28" fill="#06b6d4" opacity=".35"/>
<circle cx="50" cy="42" r="24" fill="url(#bd)"/>
<svg x="36" y="28" width="28" height="28" viewBox="0 0 24 24"><path fill="#fff" d="M14 2H6a2 2 0 0 0-2 2v16a2 2 0 0 0 2 2h12a2 2 0 0 0 2-2V8zm4 18H6V4h7v5h5zM8 13h8v2H8zm0 4h8v2H8zm0-8h3v2H8z"/></svg>
<text x="92" y="38" class="t">Ver certificado</text>
<text x="92" y="60" class="s">Abrir PDF original</text>
<g clip-path="url(#cl)"><rect class="shine" x="0" y="0" width="130" height="84" fill="url(#sh)"/></g>
</svg>